<svg width="16" height="16" viewBox="0 0 16 16" fill="none" xmlns="http://www.w3.org/2000/svg">
<g clip-path="url(#clip0_279_501)">
<path d="M8 16C12.4183 16 16 12.4183 16 8C16 3.58172 12.4183 0 8 0C3.58172 0 0 3.58172 0 8C0 12.4183 3.58172 16 8 16Z" fill="#F0F0F0"/>
<path d="M16.0005 8.00086C16.0005 4.82918 14.1547 2.08868 11.4788 0.794678V15.207C14.1547 13.9131 16.0005 11.1726 16.0005 8.00086Z" fill="#D80027"/>
<path d="M0.000244141 8.00038C0.000244141 11.1721 1.84603 13.9126 4.52199 15.2066V0.794189C1.84603 2.08819 0.000244141 4.82869 0.000244141 8.00038Z" fill="#D80027"/>
<path d="M9.39168 9.04417L10.783 8.34851L10.0873 8.0007V7.30504L8.69602 8.0007L9.39168 6.60939H8.69602L8.00037 5.56592L7.30471 6.60939H6.60905L7.30471 8.0007L5.9134 7.30504V8.0007L5.21777 8.34851L6.60905 9.04417L6.26124 9.73982H7.65255V10.7833H8.34818V9.73982H9.73949L9.39168 9.04417Z" fill="#D80027"/>
</g>
<defs>
<clipPath id="clip0_279_501">
<rect width="16" height="16" fill="white"/>
</clipPath>
</defs>
</svg>
