<svg width="117" height="36" viewBox="0 0 117 36" fill="none" xmlns="http://www.w3.org/2000/svg">
<path d="M92.4719 6.54447L100.212 25.7076C100.586 26.5937 100.698 27.406 100.137 28.2554C99.5388 29.1415 98.604 29.6215 97.0336 29.6215H94.8276C94.4537 29.6215 94.3041 29.8061 94.3041 30.1384V33.683C94.3041 34.0152 94.4537 34.1999 94.8276 34.1999H96.8841C101.483 34.1999 104.437 32.243 106.194 28.0338L115.131 6.54461C115.243 6.28615 115.28 5.95388 114.757 5.95388H109.56C109.26 5.95388 109.036 6.10163 108.924 6.397L104.288 19.8739C104.063 20.5386 103.54 20.5386 103.315 19.8739L98.679 6.397C98.5669 6.10163 98.3425 5.95388 98.0434 5.95388H92.921C92.5096 5.95388 92.3227 6.21234 92.4722 6.54461L92.4719 6.54447ZM76.6558 13.9291C77.1419 11.566 78.974 9.42448 81.5539 9.42448C84.1713 9.42448 85.9285 11.6029 86.3773 13.9291C86.4894 14.3722 86.2276 14.6307 85.779 14.6307H77.2914C76.8426 14.6307 76.5435 14.3722 76.6558 13.9291ZM70.3367 16.5875C70.3367 23.0861 75.1227 27.7752 81.7409 27.7752C86.3025 27.7752 90.7894 25.5599 91.9858 21.646C92.0979 21.3875 92.0606 21.0922 91.5371 21.0922H86.452C86.1155 21.0922 85.9285 21.2029 85.7789 21.5353C85.1058 22.8645 83.6103 23.7137 81.8902 23.7137C79.2729 23.7137 77.179 21.7568 76.6555 19.3938C76.5434 18.9506 76.8425 18.6922 77.2911 18.6922H91.7986C92.1724 18.6922 92.3594 18.5075 92.3594 18.1383V16.7353C92.3594 10.3107 87.8725 5.3999 81.4787 5.3999C75.0476 5.3999 70.3363 10.1999 70.3363 16.5875H70.3367ZM51.2676 26.6675C51.2676 27.0367 51.4173 27.2214 51.7911 27.2214H68.729C69.0654 27.2214 69.2524 27.0367 69.2524 26.6675V23.1599C69.2524 22.8276 69.0654 22.6429 68.729 22.6429H59.8301C59.2692 22.6429 59.0822 22.2738 59.4187 21.8306L68.6916 9.75676C68.8786 9.49829 68.9159 9.31363 68.9159 9.01827V6.50743C68.9159 6.13825 68.7663 5.95359 68.3925 5.95359H51.7911C51.4173 5.95359 51.2676 6.13825 51.2676 6.50743V10.052C51.2676 10.3843 51.4173 10.5689 51.7911 10.5689H60.5032C61.064 10.5689 61.251 10.9381 60.9145 11.3812L51.4922 23.4182C51.3052 23.6398 51.2678 23.8613 51.2678 24.1567V26.6675H51.2676ZM32.4977 16.5875C32.4977 12.4152 34.8533 9.46139 38.2559 9.46139C41.7705 9.46139 44.1262 12.6368 44.1262 16.5875C44.1262 20.4645 41.9202 23.7137 38.2559 23.7137C34.7412 23.7137 32.4977 20.6121 32.4977 16.5875ZM26.5526 16.5875C26.5526 23.1968 31.4881 27.7752 38.2559 27.7752C45.0984 27.7752 50.0338 23.0859 50.0338 16.5875C50.0338 10.163 45.0609 5.3999 38.2559 5.3999C31.6751 5.3999 26.5526 9.90451 26.5526 16.5875ZM1.80005 16.5875C1.80005 23.0861 6.73553 27.7752 13.3163 27.7752C18.5135 27.7752 23.2995 24.969 24.4587 19.9105C24.5708 19.5043 24.4213 19.3198 23.9726 19.3198H18.9249C18.6258 19.3198 18.4014 19.4676 18.3267 19.7998C17.6162 22.2367 15.8216 23.7137 13.4659 23.7137C9.98862 23.7137 7.78261 20.5752 7.78261 16.5875C7.78261 12.7106 9.95125 9.46139 13.3912 9.46139C15.7094 9.46139 17.5416 10.9013 18.2893 13.3015C18.4014 13.6706 18.6258 13.8553 18.9249 13.8553H24.01C24.3838 13.8553 24.5335 13.5968 24.4587 13.2646C23.337 8.27992 18.738 5.3999 13.4286 5.3999C6.77304 5.3999 1.80005 10.0892 1.80005 16.5875Z" fill="#0B2341"/>
</svg>
